# xmcd
#
# Track frame offsets:
#	150
#	11280
#	28530
#	42025
#	53835
#	71227
#	91415
#	100547
#	118297
#	128655
#	140552
#	153477
#	166882
#	178672
#	191857
#	202080
#	215222
#	226472
#	237675
#	252002
#
# Disc length: 3838 seconds
#
# Revision: 1
# Processed by: cddbd v1.4PL0 Copyright (c) Steve Scherf et al.
# Submitted via: EasyCDDAExtractor 5.0.7
#
DISCID=220efc14
DTITLE=Lou Rawls - 20 Golden Greats
DYEAR=1900
DGENRE=
TTITLE0=On Broadway
TTITLE1=Twelfth Of Never
TTITLE2=Street Of Dreams
TTITLE3=The Letter
TTITLE4=Ol' Man River
TTITLE5=One For My Baby
TTITLE6=Make The World Go Away
TTITLE7=What Now My Love
TTITLE8=I'll See You In MY Dreams
TTITLE9=Charmaine
TTITLE10=It Was A Very Good Year
TTITLE11=Autumn Leaves
TTITLE12=On A Clear Day
TTITLE13=Yesterday
TTITLE14=Love Is A Hurtin' Thing
TTITLE15=Three O'Clock In The Morning
TTITLE16=Me And My Shadow
TTITLE17=Sweet Chariot
TTITLE18=Motherless Child
TTITLE19=Tobacco Road
EXTD=
EXTT0=
EXTT1=
EXTT2=
EXTT3=
EXTT4=
EXTT5=
EXTT6=
EXTT7=
EXTT8=
EXTT9=
EXTT10=
EXTT11=
EXTT12=
EXTT13=
EXTT14=
EXTT15=
EXTT16=
EXTT17=
EXTT18=
EXTT19=
PLAYORDER=
